<!DOCTYPE svg PUBLIC "-//W3C//DTD SVG 1.1//EN" "http://www.w3.org/Graphics/SVG/1.1/DTD/svg11.dtd">
<!-- Uploaded to: SVG Repo, www.svgrepo.com, Transformed by: SVG Repo Mixer Tools -->
<svg width="800px" height="800px" viewBox="0 0 20 20" version="1.1" xmlns="http://www.w3.org/2000/svg" fill="#000000">
<g id="SVGRepo_bgCarrier" stroke-width="0"/>
<g id="SVGRepo_tracerCarrier" stroke-linecap="round" stroke-linejoin="round"/>
<g id="SVGRepo_iconCarrier"> <g id="layer1"> <path d="M 3 0 L 3 20 L 17 20 L 17 19 L 16 19 L 4 19 L 4 1 L 12 1 L 12 4 L 12 5 L 16 5 L 16 12 L 17 12 L 17 5 L 17 4 L 13 0 L 12 0 L 3 0 z M 13 1.3535156 L 15.646484 4 L 13 4 L 13 1.3535156 z M 6.5 13 C 5.671573 13 5 13.671573 5 14.5 C 5 15.328427 5.671573 16 6.5 16 L 7.5 16 C 7.776142 16 8 16.223858 8 16.5 C 8 16.776142 7.776142 17 7.5 17 L 5 17 L 5 18 L 7.5 18 C 8.328427 18 9 17.328427 9 16.5 C 9 15.671573 8.328427 15 7.5 15 L 6.5 15 C 6.223858 15 6 14.776142 6 14.5 C 6 14.223858 6.223858 14 6.5 14 L 9 14 L 9 13 L 6.5 13 z M 12 13 L 11.816406 13.007812 L 11.632812 13.033203 L 11.453125 13.076172 L 11.277344 13.134766 L 11.107422 13.208984 L 10.947266 13.298828 L 10.794922 13.404297 L 10.652344 13.521484 L 10.521484 13.652344 L 10.404297 13.794922 L 10.300781 13.947266 L 10.208984 14.107422 L 10.134766 14.277344 L 10.076172 14.451172 L 10.035156 14.632812 L 10.007812 14.816406 L 10 15 L 10 16 L 10.007812 16.183594 L 10.035156 16.367188 L 10.076172 16.546875 L 10.134766 16.722656 L 10.208984 16.890625 L 10.300781 17.052734 L 10.404297 17.205078 L 10.521484 17.347656 L 10.652344 17.478516 L 10.794922 17.595703 L 10.947266 17.699219 L 11.107422 17.791016 L 11.277344 17.865234 L 11.453125 17.923828 L 11.632812 17.964844 L 11.816406 17.992188 L 12 18 L 12.183594 17.992188 L 12.367188 17.964844 L 12.546875 17.923828 L 12.722656 17.865234 L 12.892578 17.791016 L 13.013672 17.720703 L 13.146484 17.853516 A 0.50005 0.50005 0 0 0 13.5 18 L 14 18 L 14 17 L 13.728516 17 L 13.791016 16.890625 L 13.865234 16.722656 L 13.923828 16.546875 L 13.964844 16.367188 L 13.992188 16.183594 L 14 16 L 14 15 L 13.992188 14.816406 L 13.964844 14.632812 L 13.923828 14.451172 L 13.865234 14.277344 L 13.791016 14.107422 L 13.699219 13.947266 L 13.595703 13.794922 L 13.478516 13.652344 L 13.347656 13.521484 L 13.205078 13.404297 L 13.052734 13.298828 L 12.892578 13.208984 L 12.722656 13.134766 L 12.546875 13.076172 L 12.367188 13.033203 L 12.183594 13.007812 L 12 13 z M 15 13 L 15 18 L 19 18 L 19 17 L 16 17 L 16 13 L 15 13 z M 12 14 L 12.130859 14.007812 L 12.259766 14.033203 L 12.382812 14.076172 L 12.5 14.134766 L 12.609375 14.207031 L 12.707031 14.292969 L 12.792969 14.390625 L 12.865234 14.5 L 12.923828 14.617188 L 12.966797 14.740234 L 12.992188 14.869141 L 13 15 L 13 16 L 12.992188 16.130859 L 12.966797 16.257812 L 12.353516 15.646484 L 11.646484 16.353516 L 12.257812 16.964844 L 12.130859 16.992188 L 12 17 L 11.869141 16.992188 L 11.740234 16.964844 L 11.617188 16.923828 L 11.5 16.865234 L 11.390625 16.792969 L 11.292969 16.707031 L 11.207031 16.607422 L 11.134766 16.5 L 11.076172 16.382812 L 11.033203 16.257812 L 11.007812 16.130859 L 11 16 L 11 15 L 11.007812 14.869141 L 11.033203 14.740234 L 11.076172 14.617188 L 11.134766 14.5 L 11.207031 14.390625 L 11.292969 14.292969 L 11.390625 14.207031 L 11.5 14.134766 L 11.617188 14.076172 L 11.740234 14.033203 L 11.869141 14.007812 L 12 14 z " style="fill:#ffffff; fill-opacity:1; stroke:none; stroke-width:0px;"/> </g> </g>
</svg>